<?xml version="1.0" standalone="no"?>
<!DOCTYPE svg PUBLIC "-//W3C//DTD SVG 20010904//EN"
 "http://www.w3.org/TR/2001/REC-SVG-20010904/DTD/svg10.dtd">
<svg version="1.0" xmlns="http://www.w3.org/2000/svg"
 width="500.000000pt" height="500.000000pt" viewBox="0 0 500.000000 500.000000"
 preserveAspectRatio="xMidYMid meet">
<metadata>
Created by potrace 1.14, written by Peter Selinger 2001-2017
</metadata>
<g transform="translate(0.000000,500.000000) scale(0.100000,-0.100000)"
fill="#000000" stroke="none">
<path d="M1319 3610 c-246 -24 -439 -108 -580 -250 -130 -131 -186 -281 -176
-470 14 -247 143 -407 412 -511 44 -17 177 -53 295 -80 254 -58 343 -88 399
-135 106 -91 55 -236 -98 -281 -85 -24 -259 -15 -332 19 -97 44 -159 124 -175
226 l-6 41 -279 3 -279 3 6 -65 c14 -161 50 -281 114 -380 82 -127 247 -241
420 -290 239 -67 574 -67 800 0 130 39 227 95 309 178 88 89 123 149 151 258
24 94 26 241 5 333 -41 171 -155 310 -325 393 -124 61 -187 81 -415 133 -229
52 -296 76 -349 126 -40 36 -41 40 -41 101 0 78 24 116 93 149 64 32 213 39
298 14 74 -21 136 -80 154 -145 7 -25 14 -51 16 -57 3 -10 67 -13 279 -13
l275 0 0 48 c0 71 -34 192 -77 275 -72 141 -228 265 -410 328 -123 42 -337 64
-484 49z"/>
<path d="M3525 3614 c-260 -23 -480 -112 -647 -262 -112 -101 -241 -314 -282
-467 -43 -161 -58 -405 -36 -583 42 -329 204 -607 444 -760 63 -40 206 -99
296 -122 186 -48 420 -47 606 0 107 28 266 107 351 175 156 124 291 344 318
515 3 25 9 53 11 63 5 16 -14 17 -295 17 -280 0 -301 -1 -301 -17 0 -33 -57
-140 -94 -177 -81 -80 -216 -119 -349 -99 -196 28 -323 154 -374 370 -25 107
-25 368 0 467 61 244 216 376 442 376 194 0 349 -118 372 -285 l6 -45 297 0
297 0 -9 61 c-14 107 -38 181 -90 288 -120 243 -368 417 -666 465 -96 16 -235
25 -297 20z"/>
</g>
</svg>
